<?xml version="1.0" standalone="no"?><!DOCTYPE svg PUBLIC "-//W3C//DTD SVG 1.1//EN" "http://www.w3.org/Graphics/SVG/1.1/DTD/svg11.dtd"><svg t="1709478049581" class="icon" viewBox="0 0 1024 1024" version="1.1" xmlns="http://www.w3.org/2000/svg" p-id="14846" data-darkreader-inline-fill="" xmlns:xlink="http://www.w3.org/1999/xlink" width="500" height="500"><path d="M146.432 0H716.8l233.984 211.968v687.616c0 44.032-29.184 73.216-73.216 73.216H146.432c-44.032 0-73.216-29.184-73.216-73.216V73.216C73.216 29.184 102.4 0 146.432 0z" fill="#EC6B60" p-id="14847" data-darkreader-inline-fill="" style="--darkreader-inline-fill: #8d1b11;"></path><path d="M716.8 0v138.752c0 44.032 29.184 73.216 73.216 73.216h160.768L716.8 0z" fill="#E6CAB8" p-id="14848" data-darkreader-inline-fill="" style="--darkreader-inline-fill: #50311c;"></path><path d="M512 292.352c124.416 0 219.648 95.232 219.648 219.648s-95.232 219.648-219.648 219.648-219.648-95.232-219.648-219.648S387.584 292.352 512 292.352z m95.232 139.264c-7.168-7.168-22.016-7.168-29.184 0l-58.368 58.368L460.8 431.616c-7.168-7.168-22.016-7.168-29.184 0-7.168 7.168-7.168 22.016 0 29.184l58.368 58.368-58.368 58.368c-7.168 7.168-7.168 22.016 0 29.184 7.168 7.168 22.016 7.168 29.184 0l58.368-58.368 58.368 58.368c7.168 7.168 22.016 7.168 29.184 0 7.168-7.168 7.168-22.016 0-29.184l-58.368-58.368L607.232 460.8c7.168-7.168 7.168-22.016 0-29.184z" fill="#FFFFFF" p-id="14849" data-darkreader-inline-fill="" style="--darkreader-inline-fill: #181a1b;"></path></svg>