<?xml version="1.0" standalone="no"?><!DOCTYPE svg PUBLIC "-//W3C//DTD SVG 1.1//EN" "http://www.w3.org/Graphics/SVG/1.1/DTD/svg11.dtd"><svg t="1709443427093" class="icon" viewBox="0 0 1024 1024" version="1.1" xmlns="http://www.w3.org/2000/svg" p-id="8019" xmlns:xlink="http://www.w3.org/1999/xlink" width="200" height="200"><path d="M833.163636 437.527273c-18.618182 0-32.581818-13.963636-32.581818-32.581818V139.636364c0-4.654545-4.654545-13.963636-4.654545-13.963637-4.654545-4.654545-9.309091-4.654545-13.963637-4.654545H158.254545c-9.309091-4.654545-13.963636-4.654545-18.618181 0-4.654545 4.654545-4.654545 9.309091-4.654546 18.618182v688.872727c0 13.963636 9.309091 23.272727 23.272727 23.272727h311.854546c18.618182 0 32.581818 13.963636 32.581818 32.581818 0 18.618182-13.963636 32.581818-32.581818 32.581819H121.018182c-32.581818 0-55.854545-23.272727-55.854546-55.854546V102.4C65.163636 74.472727 93.090909 46.545455 121.018182 46.545455h684.218182c32.581818 0 55.854545 23.272727 55.854545 55.854545v302.545455c4.654545 18.618182-9.309091 32.581818-27.927273 32.581818z" fill="#cdcdcd" p-id="8020"></path><path d="M521.309091 549.236364H358.4c-13.963636 0-27.927273 13.963636-27.927273 27.927272s13.963636 27.927273 27.927273 27.927273h162.909091c13.963636 0 27.927273-13.963636 27.927273-27.927273-4.654545-13.963636-13.963636-27.927273-27.927273-27.927272z m51.2-107.054546H358.4c-13.963636 0-27.927273 13.963636-27.927273 27.927273s13.963636 27.927273 27.927273 27.927273h218.763636c13.963636 0 27.927273-13.963636 27.927273-27.927273-4.654545-13.963636-18.618182-27.927273-32.581818-27.927273z m0-107.054545H358.4c-13.963636 0-27.927273 13.963636-27.927273 27.927272s13.963636 27.927273 27.927273 27.927273h218.763636c13.963636 0 27.927273-13.963636 27.927273-27.927273-4.654545-18.618182-18.618182-27.927273-32.581818-27.927272z m0 0" fill="#cdcdcd" p-id="8021"></path><path d="M665.6 214.109091H269.963636c-23.272727 0-46.545455 18.618182-46.545454 41.890909v465.454545c0 23.272727 18.618182 41.890909 41.890909 41.89091h209.454545c13.963636 0 23.272727-9.309091 23.272728-23.272728s-9.309091-23.272727-23.272728-23.272727H293.236364c-9.309091 0-18.618182-9.309091-18.618182-18.618182V279.272727c0-9.309091 9.309091-18.618182 18.618182-18.618182h344.436363c9.309091 0 18.618182 9.309091 18.618182 18.618182v148.945455c0 13.963636 9.309091 23.272727 23.272727 23.272727s23.272727-9.309091 23.272728-23.272727V256c4.654545-23.272727-13.963636-41.890909-37.236364-41.890909z m0 0" fill="#cdcdcd" p-id="8022"></path><path d="M940.218182 707.490909l-41.890909-9.309091c-4.654545-4.654545-4.654545-13.963636-9.309091-18.618182l23.272727-37.236363c9.309091-13.963636 4.654545-23.272727-4.654545-32.581818l-23.272728-23.272728c-9.309091-9.309091-23.272727-13.963636-32.581818-4.654545l-41.890909 23.272727c-4.654545-4.654545-13.963636-4.654545-18.618182-9.309091l-9.309091-41.890909c-4.654545-13.963636-13.963636-23.272727-23.272727-23.272727h-37.236364c-13.963636 0-23.272727 9.309091-23.272727 23.272727l-9.309091 41.890909c-4.654545 4.654545-13.963636 4.654545-18.618182 9.309091l-37.236363-23.272727c-13.963636-9.309091-23.272727-4.654545-32.581818 4.654545l-23.272728 23.272728c-9.309091 9.309091-13.963636 23.272727-4.654545 32.581818l23.272727 37.236363c-4.654545 4.654545-4.654545 13.963636-9.309091 18.618182l-41.890909 9.309091c-13.963636 4.654545-23.272727 13.963636-23.272727 23.272727v37.236364c0 13.963636 9.309091 23.272727 23.272727 23.272727l41.890909 9.309091c4.654545 4.654545 4.654545 13.963636 9.309091 18.618182l-27.927273 41.890909c-9.309091 13.963636-4.654545 23.272727 4.654546 32.581818l23.272727 23.272728c9.309091 9.309091 23.272727 13.963636 32.581818 4.654545l37.236364-23.272727c4.654545 4.654545 13.963636 4.654545 18.618182 9.309091l9.309091 41.890909c4.654545 13.963636 13.963636 23.272727 23.272727 23.272727h37.236364c13.963636 0 23.272727-9.309091 23.272727-23.272727l9.309091-41.890909c4.654545-4.654545 13.963636-4.654545 18.618182-9.309091l37.236363 23.272727c13.963636 9.309091 23.272727 4.654545 32.581818-4.654545l23.272728-23.272728c9.309091-9.309091 13.963636-23.272727 4.654545-32.581818l-18.618182-32.581818c4.654545-4.654545 4.654545-13.963636 9.309091-18.618182l41.890909-9.309091c13.963636-4.654545 23.272727-13.963636 23.272728-23.272727v-37.236364c0-13.963636-4.654545-27.927273-18.618182-32.581818z m-46.545455 79.127273c-9.309091 0-18.618182 9.309091-23.272727 18.618182 0 4.654545-4.654545 9.309091-4.654545 18.618181-4.654545 9.309091-4.654545 23.272727 0 23.272728l23.272727 37.236363-27.927273 23.272728-37.236364-23.272728c-9.309091-4.654545-18.618182-4.654545-23.272727 0-4.654545 4.654545-9.309091 4.654545-18.618182 4.654546-9.309091 4.654545-18.618182 13.963636-18.618181 23.272727l-9.309091 41.890909h-37.236364l-9.309091-41.890909c0-9.309091-9.309091-18.618182-18.618182-23.272727-4.654545 0-9.309091-4.654545-18.618182-4.654546-9.309091-4.654545-23.272727-4.654545-23.272727 0l-37.236363 23.272728-23.272728-23.272728 23.272728-37.236363c4.654545-9.309091 4.654545-18.618182 0-23.272728-4.654545-9.309091-4.654545-13.963636-4.654546-23.272727-4.654545-9.309091-13.963636-18.618182-23.272727-18.618182l-41.890909-9.309091v-37.236363l41.890909-9.309091c9.309091 0 18.618182-9.309091 23.272727-18.618182 0-4.654545 4.654545-9.309091 4.654546-18.618182 4.654545-9.309091 4.654545-23.272727 0-23.272727l-23.272728-37.236364 23.272728-23.272727 37.236363 23.272727c9.309091 4.654545 18.618182 4.654545 23.272727 0 4.654545-4.654545 9.309091-4.654545 18.618182-4.654545 9.309091-4.654545 18.618182-13.963636 18.618182-23.272727l9.309091-41.890909h37.236364l9.309091 41.890909c0 9.309091 9.309091 18.618182 18.618181 23.272727 4.654545 0 9.309091 4.654545 18.618182 4.654545 9.309091 4.654545 23.272727 4.654545 23.272727 0l37.236364-23.272727 23.272727 23.272727-23.272727 37.236364c-4.654545 9.309091-4.654545 18.618182 0 23.272727 4.654545 4.654545 4.654545 9.309091 4.654546 18.618182 4.654545 9.309091 13.963636 18.618182 23.272727 18.618182l41.890909 9.309091v37.236363l-37.236364 13.963637z" fill="#cdcdcd" p-id="8023"></path><path d="M740.072727 656.290909c-55.854545 0-97.745455 41.890909-97.745454 97.745455 0 55.854545 41.890909 97.745455 97.745454 97.745454h4.654546c55.854545 0 97.745455-41.890909 97.745454-97.745454-4.654545-51.2-46.545455-97.745455-102.4-97.745455z m0 186.181818c-46.545455 0-83.781818-37.236364-83.781818-83.781818s37.236364-83.781818 83.781818-83.781818 83.781818 37.236364 83.781818 83.781818c0 41.890909-37.236364 83.781818-83.781818 83.781818z" fill="#cdcdcd" p-id="8024"></path><path d="M740.072727 698.181818c-27.927273 0-55.854545 23.272727-55.854545 55.854546 0 27.927273 23.272727 55.854545 55.854545 55.854545s55.854545-23.272727 55.854546-55.854545c0-27.927273-27.927273-55.854545-55.854546-55.854546z m0 93.090909c-18.618182 0-32.581818-18.618182-32.581818-32.581818 0-18.618182 18.618182-32.581818 32.581818-32.581818s32.581818 18.618182 32.581818 32.581818c0 18.618182-18.618182 32.581818-32.581818 32.581818z" fill="#cdcdcd" p-id="8025"></path></svg>