<?xml version="1.0" standalone="no"?><!DOCTYPE svg PUBLIC "-//W3C//DTD SVG 1.1//EN" "http://www.w3.org/Graphics/SVG/1.1/DTD/svg11.dtd"><svg t="1709443666050" class="icon" viewBox="0 0 1024 1024" version="1.1" xmlns="http://www.w3.org/2000/svg" p-id="9209" xmlns:xlink="http://www.w3.org/1999/xlink" width="200" height="200"><path d="M672 755.2c-38.4 0-70.4-32-70.4-70.4v-25.6H460.8v-89.6h185.6c25.6 0 44.8 19.2 44.8 44.8v44.8L806.4 576c6.4 0 12.8-6.4 19.2-6.4h96c6.4 0 12.8-6.4 12.8-12.8v-416c6.4-6.4 0-12.8-6.4-12.8H313.6c-6.4 0-12.8 6.4-12.8 12.8v89.6h-83.2v-89.6c0-51.2 44.8-96 96-96H928c51.2 0 96 38.4 96 96v416c0 51.2-44.8 96-96 96h-89.6l-128 83.2c-12.8 12.8-25.6 19.2-38.4 19.2z" p-id="9210" fill="#e6e6e6"></path><path d="M390.4 364.8a57.6 57.6 0 1 0 115.2 0 57.6 57.6 0 1 0-115.2 0z m166.4 0a57.6 57.6 0 1 0 115.2 0 57.6 57.6 0 1 0-115.2 0z m172.8 0a57.6 57.6 0 1 0 115.2 0 57.6 57.6 0 1 0-115.2 0zM108.8 448a140.8 140.8 0 1 0 281.6 0 140.8 140.8 0 1 0-281.6 0z m396.8 428.8c0-140.8-115.2-256-249.6-256S0 729.6 0 876.8s505.6 140.8 505.6 0z" p-id="9211" fill="#e6e6e6"></path></svg>