<?xml version="1.0" standalone="no"?><!DOCTYPE svg PUBLIC "-//W3C//DTD SVG 1.1//EN" "http://www.w3.org/Graphics/SVG/1.1/DTD/svg11.dtd"><svg t="1709473640063" class="icon" viewBox="0 0 1024 1024" version="1.1" xmlns="http://www.w3.org/2000/svg" p-id="6152" data-darkreader-inline-fill="" xmlns:xlink="http://www.w3.org/1999/xlink" width="500" height="500"><path d="M204.8 0h614.4C934.4 0 1024 89.6 1024 204.8v614.4c0 115.2-89.6 204.8-204.8 204.8H204.8C89.6 1024 0 934.4 0 819.2V204.8C0 89.6 89.6 0 204.8 0z" fill="#FFFFFF" p-id="6153" data-darkreader-inline-fill="" style="--darkreader-inline-fill: #181a1b;"></path><path d="M819.2 1024H204.8C93.866667 1024 0 930.133333 0 819.2V204.8C0 93.866667 93.866667 0 204.8 0h614.4C930.133333 0 1024 93.866667 1024 204.8v614.4c0 110.933333-93.866667 204.8-204.8 204.8zM204.8 85.333333C140.8 85.333333 85.333333 140.8 85.333333 204.8v614.4C85.333333 883.2 140.8 938.666667 204.8 938.666667h614.4c64 0 119.466667-55.466667 119.466667-119.466667V204.8C938.666667 140.8 883.2 85.333333 819.2 85.333333H204.8z" fill="#21A954" p-id="6154" data-darkreader-inline-fill="" style="--darkreader-inline-fill: #1a8743;"></path><path d="M145.066667 874.666667c-4.266667 0-12.8-4.266667-12.8-12.8v-72.533334c0-4.266667 4.266667-12.8 12.8-12.8H682.666667c4.266667 0 12.8 4.266667 12.8 12.8v72.533334c0 4.266667-4.266667 12.8-12.8 12.8H145.066667z m307.2-119.466667H132.266667v-238.933333c0-51.2 12.8-76.8 68.266666-76.8h166.4c38.4 0 76.8 25.6 93.866667 59.733333 4.266667 0 8.533333 4.266667 12.8 8.533333l106.666667 89.6 4.266666 4.266667h89.6c29.866667 0 29.866667 42.666667 29.866667 59.733333 0 21.333333-4.266667 42.666667-29.866667 42.666667h-110.933333c-21.333333 0-29.866667-4.266667-34.133333-12.8l-12.8-12.8-72.533334-55.466667 8.533334 132.266667z m341.333333-34.133333c-25.6 0-42.666667-17.066667-42.666667-42.666667v-34.133333c0-25.6 17.066667-42.666667 42.666667-42.666667h162.133333c25.6 0 42.666667 17.066667 42.666667 42.666667v34.133333c0 25.6-17.066667 42.666667-42.666667 42.666667h-162.133333zM298.666667 405.333333c-72.533333 0-132.266667-55.466667-132.266667-128s59.733333-128 132.266667-128c72.533333 0 132.266667 55.466667 132.266666 128 4.266667 72.533333-59.733333 132.266667-132.266666 128z" fill="#21A954" p-id="6155" data-darkreader-inline-fill="" style="--darkreader-inline-fill: #1a8743;"></path></svg>