<?xml version="1.0" standalone="no"?><!DOCTYPE svg PUBLIC "-//W3C//DTD SVG 1.1//EN" "http://www.w3.org/Graphics/SVG/1.1/DTD/svg11.dtd"><svg t="1709465323878" class="icon" viewBox="0 0 1293 1024" version="1.1" xmlns="http://www.w3.org/2000/svg" p-id="9054" data-darkreader-inline-fill="" xmlns:xlink="http://www.w3.org/1999/xlink" width="631.34765625" height="500"><path d="M644.581053 497.017263c204.261053 0 435.469474 30.989474 435.469473-130.96421 0-161.899789-129.562947-282.246737-433.583158-306.876632-122.88-9.970526-265.000421 28.133053-331.991579 102.831158-43.061895 47.966316-113.017263 150.420211-113.017263 213.692632 0 161.953684 238.753684 121.317053 443.068632 121.317052z" fill="#FFFFFF" p-id="9055" data-darkreader-inline-fill="" style="--darkreader-inline-fill: #181a1b;"></path><path d="M513.724632 38.480842a895.083789 895.083789 0 0 1 264.677052 0c61.709474 12.395789 123.418947 22.204632 181.35579 38.265263 43.115789 10.994526 77.608421 43.385263 91.297684 85.692632 25.114947 70.763789 51.415579 140.934737 78.955789 210.405052 4.958316 11.749053 19.779368 28.995368 28.402527 27.75579a91.297684 91.297684 0 0 1 104.879158 72.757895c3.125895 12.611368 3.125895 25.707789 0 38.265263l-70.332632 19.132631c4.311579 24.522105 7.221895 49.205895 8.623158 74.051369v341.746526a97.441684 97.441684 0 0 1-20.965053 56.751158 577.482105 577.482105 0 0 1-197.416421 3.718737c-45.648842-28.995368-17.246316-77.716211-32.067368-117.221053H351.501474c-11.695158 41.930105-18.485895 112.262737-32.067369 117.221053a586.051368 586.051368 0 0 1-202.320842 0 110.376421 110.376421 0 0 1-22.258526-65.374316c-3.664842-49.367579-3.664842-96.256-3.664842-144.384 0-89.465263 0-178.930526 3.664842-268.934737l-65.374316-17.246316a70.979368 70.979368 0 0 1 0-30.288842c18.539789-49.367579 43.169684-87.578947 106.711579-82.027789 7.437474 0 21.557895-14.821053 25.923368-25.923369 23.605895-54.972632 44.193684-111.184842 61.709474-168.421052A209.758316 209.758316 0 0 1 408.899368 52.062316C442.853053 45.918316 477.992421 41.552842 511.892211 36.001684l1.832421 2.479158zM241.071158 419.732211a1948.887579 1948.887579 0 0 0 806.912 0c-22.851368-68.446316-45.648842-129.562947-61.709474-191.218527a102.4 102.4 0 0 0-102.4-82.081684 11377.178947 11377.178947 0 0 0-383.730526-11.102316c-41.714526 1.616842-83.105684 8.084211-123.365053 19.132632-18.539789 3.772632-34.762105 14.928842-45.002105 30.827789-34.546526 74.644211-60.469895 151.767579-90.704842 234.442106z m52.439579 291.193263c22.096842 1.185684 44.193684-0.053895 66.021052-3.718737 17.030737-3.934316 31.636211-14.928842 40.097685-30.181053 3.072-9.323789-11.102316-32.121263-23.444211-37.726316a1442.223158 1442.223158 0 0 0-154.246737-61.655579c-25.869474-8.623158-55.511579-6.790737-61.655579 29.642106-12.395789 53.679158 0 83.267368 40.097685 91.890526 31.474526 6.197895 61.655579 7.383579 96.202105 10.509474l-3.072 1.239579z m711.302737 0c32.498526-2.317474 64.835368-6.467368 96.848842-12.39579 46.241684-10.455579 36.378947-48.074105 35.139368-80.78821-1.239579-32.660211-18.485895-48.128-43.762526-40.690527-63.380211 18.863158-125.197474 42.361263-185.074526 70.332632-27.162947 12.934737-17.246316 48.720842 13.527579 55.511579 27.594105 4.149895 55.403789 6.629053 83.321263 7.383579v0.646737z" fill="#00DFEF" p-id="9056" data-darkreader-inline-fill="" style="--darkreader-inline-fill: #00b2bf;"></path></svg>