<?xml version="1.0" standalone="no"?><!DOCTYPE svg PUBLIC "-//W3C//DTD SVG 1.1//EN" "http://www.w3.org/Graphics/SVG/1.1/DTD/svg11.dtd"><svg t="1709465469085" class="icon" viewBox="0 0 1024 1024" version="1.1" xmlns="http://www.w3.org/2000/svg" p-id="12447" data-darkreader-inline-fill="" xmlns:xlink="http://www.w3.org/1999/xlink" width="500" height="500"><path d="M691.2 588.8h108.8c12.8 0 25.6-12.8 25.6-25.6V492.8c0-12.8-12.8-25.6-25.6-25.6h-108.8c-12.8 0-25.6 12.8-25.6 25.6v70.4c0 12.8 12.8 25.6 25.6 25.6m-236.8 211.2h108.8c12.8 0 25.6-12.8 25.6-25.6V704c0-12.8-12.8-25.6-25.6-25.6H454.4c-12.8 0-25.6 12.8-25.6 25.6v70.4c0 12.8 12.8 25.6 25.6 25.6m-230.4 0h108.8c12.8 0 25.6-12.8 25.6-25.6V704c0-12.8-12.8-25.6-25.6-25.6H224c-12.8 0-25.6 12.8-25.6 25.6v70.4c0 12.8 12.8 25.6 25.6 25.6m0-211.2h108.8c12.8 0 25.6-12.8 25.6-25.6V492.8c0-12.8-12.8-25.6-25.6-25.6H224c-12.8 0-25.6 12.8-25.6 25.6v70.4c0 12.8 12.8 25.6 25.6 25.6m467.2 211.2h108.8c12.8 0 25.6-12.8 25.6-25.6V704c0-12.8-12.8-25.6-25.6-25.6h-108.8c-12.8 0-25.6 12.8-25.6 25.6v70.4c0 12.8 12.8 25.6 25.6 25.6M454.4 588.8h108.8c12.8 0 25.6-12.8 25.6-25.6V492.8c0-12.8-12.8-25.6-25.6-25.6H454.4c-12.8 0-25.6 12.8-25.6 25.6v70.4c0 12.8 12.8 25.6 25.6 25.6m-192-300.8c32 0 51.2-25.6 51.2-51.2V89.6c0-25.6-25.6-51.2-51.2-51.2-32 0-51.2 25.6-51.2 51.2v153.6c0 25.6 25.6 44.8 51.2 44.8m492.8 0c32 0 51.2-25.6 51.2-51.2V89.6c0-25.6-25.6-51.2-51.2-51.2-32 0-51.2 25.6-51.2 51.2v153.6c6.4 25.6 25.6 44.8 51.2 44.8" fill="#0077D0" p-id="12448" data-darkreader-inline-fill="" style="--darkreader-inline-fill: #005fa6;"></path><path d="M908.8 902.4c0 6.4-6.4 12.8-12.8 12.8H128c-6.4 0-12.8-6.4-12.8-12.8V358.4h793.6v544zM896 128h-51.2v108.8c0 44.8-38.4 83.2-83.2 83.2-44.8 0-83.2-38.4-83.2-83.2V128H345.6v108.8c0 44.8-38.4 83.2-83.2 83.2-44.8 0-83.2-38.4-83.2-83.2V128H128C76.8 128 38.4 166.4 38.4 217.6v684.8c0 44.8 38.4 83.2 89.6 83.2h768c44.8 0 89.6-38.4 89.6-83.2V217.6c0-51.2-38.4-89.6-89.6-89.6z m0 0" fill="#0077D0" p-id="12449" data-darkreader-inline-fill="" style="--darkreader-inline-fill: #005fa6;"></path></svg>